<svg version="1.1" viewBox="0.0 0.0 600.0 600.0" fill="none" stroke="none" stroke-linecap="square" stroke-miterlimit="10" xmlns:xlink="http://www.w3.org/1999/xlink" xmlns="http://www.w3.org/2000/svg"><clipPath id="p.0"><path d="m0 0l600.0 0l0 600.0l-600.0 0l0 -600.0z" clip-rule="nonzero"/></clipPath><g clip-path="url(#p.0)"><path fill="#000000" fill-opacity="0.0" d="m0 0l600.0 0l0 600.0l-600.0 0z" fill-rule="evenodd"/><path fill="#000000" fill-opacity="0.0" d="m92.74147 -32.897636l268.53546 0l0 665.7953l-268.53546 0z" fill-rule="evenodd"/><path fill="#ffffff" d="m117.100845 379.77423l45.578125 -6.25q1.828125 43.75 16.40625 59.890625q14.578125 16.140625 40.359375 16.140625q19.015625 0 32.8125 -8.71875q13.812485 -8.71875 19.01561 -23.6875q5.203125 -14.984375 5.203125 -47.796875l0 -263.01562l50.53125 0l0 260.15625q0 47.90625 -11.59375 74.21875q-11.59375 26.296875 -36.71875 40.109375q-25.124985 13.796875 -58.98436 13.796875q-50.265625 0 -76.953125 -28.90625q-26.6875 -28.90625 -25.65625 -85.9375z" fill-rule="nonzero"/><path fill="#f3a81d" d="m333.8727 229.19685l95.1496 0l0 45.16536l-95.1496 0z" fill-rule="evenodd"/><path fill="#f3a81d" d="m333.8727 106.48819l173.38583 0l0 45.16536l-173.38583 0z" fill-rule="evenodd"/><path fill="#ffffff" d="m195.96982 106.48819l74.20471 0l0 45.16536l-74.20471 0z" fill-rule="evenodd"/></g></svg>